<svg version="1.1" class="svg-logo" xmlns="http://www.w3.org/2000/svg" xmlns:xlink="http://www.w3.org/1999/xlink"
     viewBox="0 0 360 90" xml:space="preserve">
                        <g class="logo-svg-text" fill="#000">
	                        <path d="M109.5,55.9H94l-4.3,10.6h-5.3L102,24.5h0.3l17.6,41.9h-6.2L109.5,55.9z M107.6,51.2l-5.7-14.7l-6,14.7H107.6z"/>
                            <path d="M140.6,66.3c-1.4,0.5-2.9,0.7-4.4,0.7c-2.5,0-4.7-0.5-6.6-1.5c-1.9-1-3.4-2.4-4.5-4.3c-1.1-1.8-1.6-4-1.6-6.4
		c0-2.4,0.6-4.5,1.7-6.3c1.1-1.8,2.6-3.3,4.5-4.3c1.9-1,3.9-1.5,6-1.5c3.5,0,6.4,1,8.7,2.9l-2.6,3.4c-0.7-0.6-1.6-1-2.6-1.4
		c-1-0.4-2-0.6-3.1-0.6c-1.4,0-2.6,0.3-3.8,1c-1.1,0.7-2,1.6-2.7,2.8c-0.7,1.2-1,2.5-1,4c0,1.4,0.3,2.8,1,4c0.7,1.2,1.6,2.1,2.8,2.8
		c1.2,0.7,2.5,1.1,4.1,1.1c1.9,0,3.5-0.6,5-1.7l2.7,3.2C143.3,65.1,142,65.8,140.6,66.3z"/>
                            <path d="M166,66.3c-1.4,0.5-2.9,0.7-4.4,0.7c-2.5,0-4.7-0.5-6.6-1.5c-1.9-1-3.4-2.4-4.5-4.3c-1.1-1.8-1.6-4-1.6-6.4
		c0-2.4,0.6-4.5,1.7-6.3c1.1-1.8,2.6-3.3,4.5-4.3c1.9-1,3.9-1.5,6-1.5c3.5,0,6.4,1,8.7,2.9l-2.6,3.4c-0.7-0.6-1.6-1-2.6-1.4
		c-1-0.4-2-0.6-3.1-0.6c-1.4,0-2.6,0.3-3.8,1c-1.1,0.7-2,1.6-2.7,2.8c-0.7,1.2-1,2.5-1,4c0,1.4,0.3,2.8,1,4c0.7,1.2,1.6,2.1,2.8,2.8
		c1.2,0.7,2.5,1.1,4.1,1.1c1.9,0,3.5-0.6,5-1.7l2.7,3.2C168.7,65.1,167.4,65.8,166,66.3z"/>
                            <path d="M183.9,45.5c1.1-1,2.3-1.7,3.5-2.2c1.2-0.5,2.3-0.8,3.2-0.8l-0.2,5.2c-1.7-0.1-3.2,0.3-4.5,1
		c-1.4,0.7-2.4,1.8-3.2,3.1c-0.8,1.3-1.1,2.7-1.1,4.2v10.5h-5.2V43.4h4.6l0.4,5.5C182,47.6,182.8,46.5,183.9,45.5z"/>
                            <path d="M197.9,33c0.6-0.6,1.4-0.8,2.2-0.8c0.8,0,1.5,0.3,2.1,0.8c0.6,0.6,0.9,1.2,0.9,2.1c0,0.8-0.3,1.5-0.9,2.1
		c-0.6,0.6-1.3,0.8-2.1,0.8c-0.8,0-1.5-0.3-2.2-0.8c-0.6-0.6-0.9-1.2-0.9-2.1C196.9,34.3,197.3,33.6,197.9,33z M202.5,43.4v23.1
		h-5.2V43.4H202.5z"/>
                            <path d="M226.5,66.3c-1.4,0.5-2.9,0.7-4.4,0.7c-2.5,0-4.7-0.5-6.6-1.5c-1.9-1-3.4-2.4-4.5-4.3c-1.1-1.8-1.6-4-1.6-6.4
		c0-2.4,0.6-4.5,1.7-6.3c1.1-1.8,2.6-3.3,4.5-4.3c1.9-1,3.9-1.5,6-1.5c3.5,0,6.4,1,8.7,2.9l-2.6,3.4c-0.7-0.6-1.6-1-2.6-1.4
		c-1-0.4-2-0.6-3.1-0.6c-1.4,0-2.6,0.3-3.8,1c-1.1,0.7-2,1.6-2.7,2.8c-0.7,1.2-1,2.5-1,4c0,1.4,0.3,2.8,1,4c0.7,1.2,1.6,2.1,2.8,2.8
		c1.2,0.7,2.5,1.1,4.1,1.1c1.9,0,3.5-0.6,5-1.7l2.7,3.2C229.2,65.1,228,65.8,226.5,66.3z"/>
                            <path d="M253.4,60.5l2.4,3.8c-1.2,0.8-2.6,1.5-4,1.9c-1.4,0.5-2.8,0.7-4.2,0.7c-2.6,0-4.8-0.5-6.7-1.6
		c-1.9-1.1-3.4-2.5-4.4-4.4c-1-1.9-1.6-4-1.6-6.3c0-2.3,0.6-4.3,1.7-6.2c1.1-1.9,2.7-3.4,4.7-4.5c2-1.1,4.1-1.6,6.5-1.6
		c3,0,5.5,0.9,7.5,2.6c2,1.8,3.4,4.2,4.2,7.4l-18.3,6.4c0.7,1.2,1.6,2.1,2.7,2.7c1.1,0.7,2.4,1,3.9,1
		C249.7,62.5,251.6,61.9,253.4,60.5z M242.1,48.8c-1.4,1.5-2.1,3.4-2.1,5.7c0,0.6,0,1,0.1,1.3l13.4-5c-0.6-1.3-1.3-2.3-2.4-3.1
		c-1-0.8-2.3-1.2-3.8-1.2C245.2,46.6,243.5,47.3,242.1,48.8z"/>
                            <path d="M285.6,44.4c1.4,1.3,2.1,2.9,2.2,5v17h-5.2V51.2c-0.1-1.3-0.5-2.3-1.2-3.1c-0.7-0.7-1.8-1.1-3.2-1.2
		c-2,0-3.7,0.8-5.1,2.5c-1.3,1.6-2,3.7-2,6.2v10.8h-5.2V43.4h4.7l0.3,4.5c0.8-1.7,2-3,3.7-3.9c1.6-0.9,3.5-1.4,5.6-1.4
		C282.4,42.5,284.2,43.1,285.6,44.4z"/>
                            <path d="M304.2,33.2v10.2h6.3v4.1h-6.3v18.9h-5.2V47.6h-4.2v-4.1h4.2V33.2H304.2z"/>
                            <path d="M333.2,60.5l2.4,3.8c-1.2,0.8-2.6,1.5-4,1.9c-1.4,0.5-2.8,0.7-4.2,0.7c-2.6,0-4.8-0.5-6.7-1.6
		c-1.9-1.1-3.4-2.5-4.4-4.4c-1-1.9-1.6-4-1.6-6.3c0-2.3,0.6-4.3,1.7-6.2c1.1-1.9,2.7-3.4,4.7-4.5c2-1.1,4.1-1.6,6.5-1.6
		c3,0,5.5,0.9,7.5,2.6c2,1.8,3.4,4.2,4.2,7.4L321,58.9c0.7,1.2,1.6,2.1,2.7,2.7c1.1,0.7,2.4,1,3.9,1
		C329.5,62.5,331.4,61.9,333.2,60.5z M322,48.8c-1.4,1.5-2.1,3.4-2.1,5.7c0,0.6,0,1,0.1,1.3l13.4-5c-0.6-1.3-1.3-2.3-2.4-3.1
		c-1-0.8-2.3-1.2-3.8-1.2C325.1,46.6,323.3,47.3,322,48.8z"/>
                            <path d="M353.3,45.5c1.1-1,2.3-1.7,3.5-2.2c1.2-0.5,2.3-0.8,3.2-0.8l-0.2,5.2c-1.7-0.1-3.2,0.3-4.5,1
		c-1.4,0.7-2.4,1.8-3.2,3.1c-0.8,1.3-1.1,2.7-1.1,4.2v10.5h-5.2V43.4h4.6l0.4,5.5C351.3,47.6,352.2,46.5,353.3,45.5z"/>
</g>
    <g class="logo-svg-icon" fill="currentColor">
	<path class="st1" d="M40.4,45c5.1,38.7-8.1,46.2-39.4,22.5C-4,28.8,9.1,21.3,40.4,45z M40.4,45C15.9,33,2.8,40.5,1.1,67.5
		C25.5,79.5,38.7,72,40.4,45z"/>
        <path class="st1" d="M40.4,45C9.1,68.7-4,61.2,1.1,22.5C32.4-1.2,45.5,6.3,40.4,45z M40.4,45C38.7,18,25.5,10.5,1.1,22.5
		C2.8,49.5,15.9,57,40.4,45z"/>
        <path class="st1" d="M40.4,45C4.1,30,4.1,15,40.4,0C76.8,15,76.8,30,40.4,45z M40.4,45c22.7-15,22.7-30,0-45
		C17.7,15,17.7,30,40.4,45z"/>
        <path class="st1" d="M40.4,45C35.4,6.3,48.5-1.2,79.8,22.5C84.8,61.2,71.7,68.7,40.4,45z M40.4,45C64.9,57,78,49.5,79.8,22.5
		C55.3,10.5,42.2,18,40.4,45z"/>
        <path class="st1" d="M40.4,45c36.3,15,36.3,30,0,45C4.1,75,4.1,60,40.4,45z M40.4,45c-22.7,15-22.7,30,0,45
		C63.1,75,63.1,60,40.4,45z"/>
        <path class="st1" d="M40.4,45c31.3-23.7,44.4-16.2,39.4,22.5C48.5,91.2,35.4,83.7,40.4,45z M40.4,45c1.8,27,14.9,34.5,39.4,22.5
		C78,40.5,64.9,33,40.4,45z"/>
</g>
</svg>